<svg width="85" height="88" viewBox="0 0 85 88" fill="none" xmlns="http://www.w3.org/2000/svg">
<path d="M44.7428 0.151946C46.3711 0.057971 48.4708 0.501106 50.0019 1.05161C50.4812 1.2222 50.1644 1.54186 50.4874 1.67771C51.1134 1.94399 51.7666 1.89733 52.3707 2.21631C52.5693 2.32388 52.1705 2.8331 52.3794 2.93251C53.5171 3.47374 54.6777 3.64797 55.8285 4.15877C61.4585 6.6735 66.5367 9.91462 70.8547 14.1835C72.2881 15.5939 73.554 17.6979 75.0132 19.1316C75.1852 19.2992 75.4964 18.8642 75.5582 18.8728C76.5193 19.0305 75.5549 19.4932 75.7313 19.9439C76.4315 21.7366 77.5034 23.4257 78.5577 24.8543C79.0057 25.4628 79.5238 24.2998 79.3979 25.2491C79.3895 25.3139 78.8182 25.4137 78.8669 25.6218C78.9796 26.0915 79.4738 26.8235 79.5952 27.1671C79.827 27.8273 79.8803 27.927 80.1499 28.5237C80.5136 29.3457 80.6713 30.4253 81.1229 31.2759C81.2213 31.4583 81.6516 31.0048 81.8567 31.2821C82.0634 31.5592 82.3075 32.4049 82.2719 32.7274C82.2379 33.0493 81.7786 33.0656 81.6985 33.1462C81.0177 33.8046 82.4278 34.4019 82.4914 34.5285C83.6122 36.6794 83.3434 38.8385 83.6064 41.0029C83.8071 42.6468 84.1253 44.4042 84.0971 46C84.0969 46.0132 84.0967 46.0264 84.0964 46.0396C84.0516 47.9515 83.6429 49.5248 83.4661 51.3531C83.446 51.5463 84.1304 51.4043 84.1064 51.6433C83.8472 54.1844 83.2051 56.6878 82.0042 58.9497C81.8831 59.1756 81.4321 58.6886 81.2788 58.9007C80.3569 60.2304 78.4342 61.883 80.3272 63.7672C79.7984 64.6788 79.1187 65.7712 78.2188 66.328C77.6398 66.6838 77.3788 65.8709 77.2506 66.6292C77.2198 66.8 77.8048 66.8969 77.7206 67.1342C77.3619 68.138 76.5921 68.9973 76.2299 70.0083C76.1569 70.2151 76.5942 70.4546 76.632 70.5557C76.9225 71.399 75.4473 71.3747 75.2704 71.4598C73.9111 72.1631 73.469 73.0796 72.5879 74.0233C72.3826 74.2405 73.1129 74.4305 72.9303 74.6579C71.9734 75.8322 70.7937 76.8925 69.4884 77.6347C69.1972 77.7979 69.0532 77.1726 68.8961 77.2275C68.2132 77.4661 68.781 78.3864 68.1192 78.6233C67.981 78.6732 67.7393 78.2448 67.6863 78.219C66.8629 77.8056 67.3266 78.9445 67.2586 79.0296C66.4412 80.1001 65.0542 79.5601 64.1385 80.3646C64.0268 80.4629 64.6404 80.799 64.3027 81.045C62.0528 82.6878 59.2887 83.8822 56.5695 84.3829C56.1468 84.4615 56.2679 83.9228 56.2224 83.8792C55.5142 83.1957 55.6669 84.4041 55.5486 84.4935C54.6205 85.1626 53.382 84.4918 53.0493 86.0539C49.3605 86.6625 45.7075 87.5788 42 87.1107C41.0884 86.9951 40.202 86.7956 39.3225 86.4867C39.2663 86.4683 39.4064 85.8898 39.2954 85.8555C37.9659 85.4255 38.1695 86.3517 37.1117 87.3586C36.8376 87.6101 36.3074 86.1818 36.2669 86.075C36.0974 85.6834 36.4497 84.8525 36.3864 84.7723C35.879 84.1376 35.5327 87.0078 34.6748 86.8603C34.6494 86.8509 34.8529 86.3476 34.7916 86.2831C34.6032 86.0812 34.349 86.2485 34.1715 86.0278C33.7649 85.5158 33.8961 84.1141 33.0031 84.7475C32.8875 84.8283 32.6615 86.4615 31.9312 86.2026C31.6425 86.1034 30.3224 85.7701 29.9941 85.5532C29.664 85.3415 30.0674 84.9132 30.0477 84.8834C29.3019 83.9186 29.753 83.7556 29.6212 82.6246C29.5056 81.4983 28.8286 83.8589 28.5447 84.0498C28.2597 84.2406 27.7704 83.446 27.6807 83.1951C27.5881 82.9447 27.9136 82.7113 27.8095 82.5495C27.1316 81.4854 26.9357 83.5128 26.4647 83.7425C25.3321 84.2719 25.461 82.3354 24.884 81.8626C24.7244 81.7326 24.6926 82.1773 24.5134 82.1337C23.8018 81.9509 23.6863 81.2551 22.7273 81.3266C22.5747 81.3411 21.4471 81.9654 21.4777 81.0507C21.4844 80.9203 21.8604 80.6158 21.6515 80.3745C21.3396 80.0143 20.7055 79.5033 20.2186 79.3636C19.8575 79.2602 19.7906 80.1118 19.5381 79.6655C19.4279 79.4669 19.9802 79.3114 19.7566 78.9702C19.5336 78.6322 18.7475 78.0993 18.4489 77.8935C18.1497 77.6904 17.9689 78.262 17.9228 78.2754C17.6481 78.3454 16.9166 78.1275 16.8677 78.0864C14.303 76.1525 12.9127 73.4273 10.7622 71.2824C10.593 71.1112 10.2278 71.6102 10.1972 71.5879C9.48298 71.0935 11.1313 70.615 11.2052 69.8469C10.2979 70.6549 10.2629 70.2573 9.81282 69.8752C9.59541 69.691 9.30719 70.0907 9.2535 70.0991C8.42886 70.1824 9.00578 69.4019 9.11844 69.2351C9.5279 68.6139 8.68743 68.838 8.965 68.4219C9.2434 68.0126 10.0397 67.9739 9.73354 67.535C9.28732 67.6485 8.57202 68.6207 8.18469 68.371C6.68372 67.4169 5.98857 64.3175 5.56266 63.1306C5.10903 61.937 4.88384 61.5825 4.75123 60.838C4.53135 59.4904 3.92317 60.2473 3.27256 59.5787C2.62914 58.8953 4.72864 58.6268 5.11132 58.3711C5.49732 58.1223 5.02353 58.1488 5.21237 57.938C5.40214 57.7298 5.78244 57.923 5.77002 57.5845C5.75635 57.2506 4.74585 56.6229 4.26592 56.6271C3.24888 56.647 2.35993 57.336 2.47195 56.3446C2.47954 56.2881 3.0495 56.3159 3.0521 56.1072C3.05994 54.4689 2.7727 52.8521 2.93486 51.2551C2.9583 51.0363 3.58384 51.1466 3.60463 51.0199C3.83571 49.7074 2.87822 50.2829 1.67739 49.6674C3.1978 49.6887 4.0723 49.2205 4.02324 48.2742C3.9973 47.6996 3.34511 47.8354 2.8651 47.4735C2.7202 47.3636 3.16105 46.9358 2.84988 46.8678C1.83336 46.6365 0.69855 47.0619 1.14288 46C1.14306 45.9996 1.14325 45.9991 1.14344 45.9987C1.15101 45.9823 1.22488 45.9901 1.31884 46C1.44245 46.013 1.60081 46.0294 1.68874 46C1.72358 45.9884 1.74737 45.9696 1.75359 45.9405C1.98153 44.9252 0.922365 44.7841 0.850523 43.6494C0.793955 42.752 1.58563 41.2564 1.8331 40.3007C3.51071 40.5508 3.255 39.6236 2.16995 39.0473C2.32604 38.4255 2.39583 37.7364 2.68933 37.1673C2.78973 36.9724 3.23855 37.2171 3.29624 37.2026C4.19694 36.998 3.15327 36.4753 3.14356 36.3284C3.08789 34.7664 4.26367 33.8744 3.94575 32.2627C3.93399 32.2067 2.8542 31.7204 3.79745 31.6566C3.86132 31.656 4.1985 32.2824 4.47342 31.6716C4.75055 31.0532 5.80575 30.1581 5.70123 29.0992C5.67326 28.8462 5.06195 27.9043 5.93968 27.8275C6.05778 27.8191 6.32977 28.0307 6.53691 28.0383C7.19662 28.0644 6.21022 27.3765 7.25939 27.5597C8.30948 27.7429 9.27128 27.5528 9.12228 26.438C9.11884 26.4042 8.41709 25.7356 8.58159 25.4965C8.84248 25.1176 9.3581 24.679 9.61816 24.2826C9.74259 24.0921 9.17525 23.8842 9.1885 23.8453C9.7973 22.3706 10.8941 21.7822 12.124 20.6736C12.3462 20.4747 12.3279 19.2799 13.1972 19.2766C14.142 19.2854 15.7877 21.7175 16.2533 20.2639C16.4278 19.7014 14.4705 16.5058 16.5424 17.1987C17.7819 15.4817 19.863 15.1213 21.2019 13.4656C21.2616 13.3919 20.9661 12.3715 21.1653 12.2648C21.4596 12.1096 21.8602 12.4252 22.0756 12.3337C22.984 11.9625 23.5733 11.1778 24.4512 10.8093C24.7834 10.6702 24.8887 11.167 25.2806 11.0085C25.6701 10.8531 25.658 10.142 26.3153 10.1948C26.8151 10.2368 27.7184 11.2952 28.2836 11.2378C27.8218 10.0142 28.1933 9.89183 28.7356 9.32759C28.8401 9.21865 28.5489 8.83954 28.5908 8.76577C28.7608 8.45507 29.1161 8.7309 29.2711 8.40864C29.3094 8.33093 29.1695 7.90651 29.1938 7.81885C29.3998 7.0538 30.3912 7.79931 30.5504 7.93553C31.1797 8.44124 31.2224 7.82589 31.6337 7.98459C32.0395 8.14615 31.6225 8.59709 32.054 8.64582C32.9403 8.74819 33.957 8.44261 34.7862 8.30781C35.1162 8.25128 34.7828 7.70705 34.8274 7.68535C35.4982 7.40592 36.2902 7.92779 36.5142 6.69801C37.4076 9.67918 36.8951 6.33897 37.9945 6.84011C38.0804 6.88159 38.318 8.3174 38.0473 8.55953C37.7782 8.8015 37.2793 8.40211 36.9184 8.78677C36.8277 8.8767 36.491 10.3014 36.4366 10.3943C35.9843 11.1179 35.5395 8.99546 35.4855 8.88304C34.905 7.67623 34.4989 9.25011 34.3555 9.38493C33.6599 10.0041 32.9347 9.86729 32.3687 10.3625C32.0005 10.6848 32.3511 12.0645 32.0259 12.1137C30.9631 12.2817 29.9126 10.5427 29.514 12.5209C29.432 12.9449 30.1947 14.3121 29.0262 13.4584C28.9568 13.4022 27.9798 12.5922 27.9408 13.3809C27.9368 13.4797 28.118 13.8949 28.0823 13.9519C27.8413 14.3257 27.4675 14.0983 27.1732 14.4271C26.8808 14.7555 26.5639 15.1984 26.0882 15.2725C25.803 15.3165 25.0883 14.743 24.867 14.629C24.2368 14.295 24.3594 15.3497 23.7915 14.8474C23.2099 14.3496 23.0814 13.1461 22.2619 13.0893C22.8464 14.111 23.4226 15.1741 24.0046 16.2054C22.8336 16.866 21.5125 17.3116 20.4586 18.1945C20.3297 18.3045 20.8542 18.6978 20.7285 18.8272C20.2024 19.3684 19.4046 19.4464 18.9344 20.1049C18.5725 20.6168 18.5522 21.5554 18.2365 22.108C17.0156 21.4196 16.6756 22.4279 16.1344 22.8527C15.943 23.0033 15.6845 22.7532 15.4819 22.806C14.7241 23.017 15.8287 23.561 15.857 23.8154C15.9949 24.8946 13.8693 23.2341 13.3429 24.0195C13.3105 24.0639 14.1022 25.3992 14.1321 25.5117C14.3061 26.2617 13.6791 25.2834 13.4055 25.4805C12.9085 25.8418 12.3852 25.9956 12.3597 26.8047C12.3516 27.0452 12.8575 27.9167 12.0683 27.8846C11.9644 27.8811 11.573 27.6112 11.5277 27.6324C10.7405 28.0457 12.0218 28.8179 12.2606 29.4215C12.5016 30.0218 11.3002 30.0955 10.9734 30.0846C10.1306 30.046 10.8046 29.6951 10.7474 29.6445C10.0595 29.0273 9.96691 29.5312 9.7311 29.8339C8.39971 29.2247 8.23581 29.7583 9.4926 30.1518C9.62961 30.1947 9.63705 29.8716 9.7311 29.8339C10.8626 30.7774 10.8013 31.3192 9.32044 31.3445C8.62704 31.3606 8.06492 30.8025 7.94712 31.7643C7.89765 32.1993 8.89038 32.4322 9.01158 32.8664C9.29284 33.8461 8.05849 34.5146 7.94519 35.3822C7.9062 35.6902 8.52028 35.5688 8.51306 35.7824C8.49848 36.3444 7.96955 36.6995 8.0371 37.2889C8.04423 37.3415 8.6326 37.3684 8.5985 37.5326C8.35565 38.7775 7.77607 39.798 7.57625 41.1312C7.47703 41.7752 7.67339 42.9574 7.56887 43.6165C7.44826 44.3595 7.04574 45.1962 6.84428 46C6.73247 46.442 6.68136 46.8626 6.76612 47.2193C6.92145 47.8719 7.49419 47.6979 7.90079 47.9525C8.68695 48.4279 7.40998 49.4569 7.21632 49.6181C7.20887 49.6231 7.02029 49.0762 6.75373 49.4035C6.15633 49.6394 7.21315 49.6128 7.21632 49.6181C7.0847 49.7161 7.08984 50.8566 7.23588 51.0609C7.31293 51.1722 7.84413 51.0261 7.87403 51.0846C8.5754 52.481 9.00973 53.845 9.16892 55.3441C9.16548 55.3724 8.56635 55.5012 8.56588 55.5664C8.54767 56.4858 9.44008 56.8044 10.0902 57.3136C10.743 57.8256 10.8008 58.3728 9.99173 59.1658C10.3171 59.6136 10.2091 60.511 10.152 61.0448C10.0948 61.5798 11.1942 61.1125 11.2316 61.1363C12.4454 61.8809 12.1704 62.7959 12.7418 63.9411C13.0089 64.4853 13.8133 65.3865 14.2993 65.8319C14.6819 66.1838 14.6439 66.5981 15.0742 66.863C15.1321 66.8987 15.5112 66.5228 15.5392 66.5256C16.3553 66.5394 15.186 67.1469 15.072 67.3762C14.6612 68.2095 14.4814 68.7035 15.2364 68.9775C15.4138 69.0458 17.1159 68.1577 17.3773 68.2826C17.7208 68.454 17.1368 68.8072 17.515 68.9753C17.547 68.9898 17.8427 68.703 17.9889 68.8831C18.6709 69.7145 19.3637 70.7058 20.2488 71.4086C20.3681 71.5052 20.6446 70.8811 20.8216 71.0098C21.6517 71.6134 22.5154 72.307 23.1639 73.13C23.3229 73.3344 22.9354 73.6232 22.9025 73.7659C22.7174 74.6391 23.785 73.9103 23.858 73.9299C25.7007 74.4349 26.4245 76.0655 28.3794 76.3895C28.4939 76.4098 29.7001 75.5364 29.6038 76.6805C29.5946 76.7559 29.5115 77.9353 30.0809 77.3286C30.1152 77.29 30.1207 76.6732 30.4507 76.8609C30.786 77.05 31.4691 76.8822 31.7658 77.6458C31.8555 77.8855 31.9123 79.0819 32.6461 78.3625C32.7069 78.3168 33.9485 76.5626 33.8539 77.9756C33.8384 78.2077 33.4352 79.6333 34.1987 79.0371C34.3427 78.92 34.2189 78.5533 34.5533 78.4194C35.0606 78.2108 35.5721 78.7206 36.2303 78.169C36.3491 78.0722 36.9015 77.1505 37.1012 77.9497C37.1334 78.075 36.9635 78.5482 37.1264 78.6283C37.9073 79.0115 38.8074 78.7786 39.6202 79.1774C39.9121 79.3173 39.7048 80.1029 40.0155 80.3353C40.3264 80.5683 40.9768 80.7988 41.3253 80.4397C41.6685 80.0807 41.3261 78.8064 41.8131 78.7093C41.8754 78.6967 41.9377 78.6848 42 78.6738C44.0182 78.3117 46.0643 78.8334 48.1199 78.5594C48.4302 78.5169 48.0922 78.1203 48.536 78.0231C50.2054 77.6794 52.783 76.4354 54.498 76.749C55.9014 77.0026 54.7224 78.135 55.7115 78.0599C56.2019 78.0139 56.0361 76.4641 56.1077 76.3792C56.8414 75.5139 57.7735 75.7647 58.5 75.1245C58.6473 74.9927 58.1868 74.5663 58.313 74.4609C58.7373 74.0976 59.371 74.0239 59.791 73.695C59.9779 73.5465 59.6912 73.1875 59.8902 73.0987C60.3634 72.88 60.846 72.7786 61.5128 72.8232C61.5747 72.8263 61.6498 73.4755 61.9826 73.2587C62.5161 72.9085 63.419 72.741 63.709 71.9272C63.7941 71.6834 63.1197 70.888 63.9417 71.1296C64.1126 71.1794 64.8534 72.2025 64.5423 71.0261C64.5012 70.8237 64.1529 69.1555 65.1174 69.5238C65.3726 69.6212 66.3153 70.1319 66.3882 69.8261C66.3945 69.7827 65.8941 69.4922 66.0059 69.2989C66.4048 68.6255 66.9839 68.0758 67.3517 67.367C67.4478 67.178 66.8071 67.0382 66.9613 66.7714C67.3823 66.0402 68.1252 65.3123 68.7435 64.7446C68.9724 64.5362 69.2478 64.9819 69.303 64.9943C70.2105 65.1812 69.3814 64.3525 69.389 64.2206C69.4575 63.3926 70.207 63.2084 70.428 62.5488C70.4889 62.3685 69.9484 62.2078 69.9247 62.1513C69.699 61.5864 70.4122 62.321 70.6269 62.1633C71.2323 61.7187 71.5524 61.0134 71.7907 60.3575C71.8768 60.1171 71.1812 60.0981 71.2631 59.8885C71.7344 58.6446 72.2966 57.4038 73.0376 56.2771C73.1782 56.0643 73.595 56.3632 73.7173 56.3488C74.576 56.2413 73.7113 55.4138 73.6449 55.2757C73.3502 54.6256 73.8211 54.5388 73.8622 54.0508C74.0594 51.6902 74.7037 48.8995 74.9094 46.6587C74.9311 46.4365 74.952 46.2171 74.9719 46C75.2003 43.4021 75.3486 41.1887 74.685 38.6706C74.639 38.4982 74.0433 38.8156 73.9958 38.6713C73.4123 36.8183 73.0614 34.9114 72.1235 33.1869C72.0477 33.0462 71.5702 33.498 71.4306 33.2841C71.1403 32.8477 70.9 32.2503 70.8423 31.6935C70.8127 31.4219 71.4411 31.4943 71.3997 31.2227C71.3024 30.5877 71.0255 29.9818 70.6238 29.4855C70.4521 29.2765 70.1078 29.9394 69.9289 29.6474C68.6876 27.6641 67.2774 25.9345 66.2606 23.624C66.1917 23.467 67.0275 22.4808 66.5972 22.3872C66.3216 22.6142 66.0209 22.9056 65.7387 23.1612C63.2107 20.8307 60.7484 18.3988 57.6903 16.6763C57.5628 16.6051 57.4632 17.3222 57.2178 17.1894C55.7846 16.4218 54.308 15.9764 52.9607 14.7857C52.8257 14.6691 53.3007 13.5656 52.761 13.5754C52.666 13.5764 51.8906 13.4976 51.6319 13.694C51.596 13.7242 51.5655 14.2971 51.3332 14.2455C49.9806 13.9363 48.6154 13.4982 47.2862 12.9431C47.0708 12.8525 47.4023 12.3027 47.2473 12.233C46.1377 11.7417 44.8358 12.0657 43.7442 11.4731C43.0086 11.0767 43.3262 10.0631 42.9305 9.03942C42.8738 8.89441 42.3733 8.86368 42.3509 8.27588C42.2915 6.79567 42.5722 5.17845 42.481 3.60034C42.4655 3.3372 42.0003 3.49324 42 3.20146L-nan -nanL42 7L-nan -nanL42 3.20127C42.0001 3.1151 42.0404 2.98967 42.1464 2.80323C42.1784 2.74756 42.749 2.48066 42.8967 2.20617C42.9997 2.01576 42.8321 1.41364 43.0421 1.17171C43.2541 0.930396 43.4637 1.43768 43.8123 1.16164C44.1647 0.883712 44.0395 0.193537 44.7428 0.151946ZM9.9794 63.4767C9.69247 64.1404 11.548 63.1684 10.8887 63.0113C10.8547 63.0049 9.9932 63.4435 9.9794 63.4767ZM20.6125 16.0459C19.5964 15.6381 20.0921 16.9676 20.8377 17.3009C21.5712 17.6446 20.9152 16.1742 20.6125 16.0459ZM25.4394 12.3707C24.4895 12.0313 25.7625 14.7158 26.1145 13.8671C26.1353 13.8189 25.4939 12.391 25.4394 12.3707ZM44.9354 8.85383C44.9316 8.82523 44.5725 8.77188 44.5619 8.7992C44.328 9.44896 45.0328 9.5538 44.9354 8.85383ZM30.8369 9.44511C30.5094 9.12354 30.0463 9.76002 30.4589 10.1518C30.785 10.4674 31.2381 9.84514 30.8369 9.44511ZM25.3073 80.9322C25.3002 80.9637 25.5314 81.1044 25.6015 80.9422C25.8263 80.4208 25.4259 80.4074 25.3073 80.9322ZM41.1448 7.76413C39.6282 7.69314 38.4371 5.33034 40.2477 5.50451C40.5679 5.53992 39.5972 6.31821 40.0134 6.51953C40.7512 6.88768 41.2124 5.33541 41.986 6.15857C42.1157 6.30782 41.2244 7.77142 41.1421 7.7676C41.143 7.76645 41.1439 7.76529 41.1448 7.76413ZM7.90329 64.9196C7.88321 64.9413 8.04463 65.2817 8.07331 65.2757C8.74909 65.1211 8.43061 64.4473 7.90329 64.9196ZM40.388 85.9693C40.4057 86.0314 41.2985 86.1118 41.3292 86.0555C41.8004 84.9812 40.0475 84.8188 40.388 85.9693ZM1.88011 40.2917C1.27635 39.7802 1.28318 39.2386 2.16878 39.0491C2.05275 39.4574 1.97984 39.8791 1.88011 40.2917Z" fill="white"/>
<path d="M18 70V58.6667L53.2 23.5333C53.7333 23.0444 54.3222 22.6667 54.9667 22.4C55.6111 22.1333 56.2889 22 57 22C57.7111 22 58.4 22.1333 59.0667 22.4C59.7333 22.6667 60.3111 23.0667 60.8 23.6L64.4667 27.3333C65 27.8222 65.3889 28.4 65.6333 29.0667C65.8778 29.7333 66 30.4 66 31.0667C66 31.7778 65.8778 32.4556 65.6333 33.1C65.3889 33.7444 65 34.3333 64.4667 34.8667L29.3333 70H18ZM56.9333 34.8L60.6667 31.0667L56.9333 27.3333L53.2 31.0667L56.9333 34.8Z" fill="white"/>
</svg>
